<?xml version="1.0" encoding="UTF-8" standalone="no"?>
<!DOCTYPE svg PUBLIC "-//W3C//DTD SVG 1.1//EN" "http://www.w3.org/Graphics/SVG/1.1/DTD/svg11.dtd">
<svg width="100%" height="100%" viewBox="0 0 250 186" version="1.1" xmlns="http://www.w3.org/2000/svg" xmlns:xlink="http://www.w3.org/1999/xlink" xml:space="preserve" xmlns:serif="http://www.serif.com/" style="fill-rule:evenodd;clip-rule:evenodd;stroke-linecap:round;stroke-linejoin:round;stroke-miterlimit:2;">
    <g transform="matrix(1,0,0,1,68.0315,92.6929)">
        <g id="_0" serif:id="0">
            <g id="s2-5" transform="matrix(-1,-1.22465e-16,1.22465e-16,-1,113.386,1.10134e-11)">
                <path d="M44.787,38.835C44.787,39.148 45.041,39.402 45.354,39.402L55.559,39.402C55.872,39.402 56.126,39.148 56.126,38.835L56.126,24.945C56.126,24.632 55.872,24.378 55.559,24.378L45.354,24.378C45.041,24.378 44.787,24.632 44.787,24.945L44.787,38.835Z" style="fill:none;stroke:black;stroke-width:0.35px;"/>
            </g>
            <g id="s2-23" transform="matrix(-1,-1.22465e-16,1.22465e-16,-1,113.386,1.10134e-11)">
                <path d="M-39.856,-8.504C-34.792,1.144 -25.434,7.087 -15.307,7.087L-15.307,-24.094C-25.434,-24.094 -34.792,-18.151 -39.856,-8.504" style="fill:none;stroke:black;stroke-width:0.35px;"/>
            </g>
            <g id="s2-11" transform="matrix(-1,-1.22465e-16,1.22465e-16,-1,113.386,1.10134e-11)">
                <path d="M44.787,22.677C44.787,22.99 45.041,23.244 45.354,23.244L55.559,23.244C55.872,23.244 56.126,22.99 56.126,22.677L56.126,8.787C56.126,8.474 55.872,8.22 55.559,8.22L45.354,8.22C45.041,8.22 44.787,8.474 44.787,8.787L44.787,22.677Z" style="fill:none;stroke:black;stroke-width:0.35px;"/>
            </g>
            <g id="s2-29" transform="matrix(-1,-1.22465e-16,1.22465e-16,-1,113.386,1.10134e-11)">
                <path d="M44.787,-25.795C44.787,-25.482 45.041,-25.228 45.354,-25.228L55.559,-25.228C55.872,-25.228 56.126,-25.482 56.126,-25.795L56.126,-35.433C56.126,-35.746 55.872,-36 55.559,-36L45.354,-36C45.041,-36 44.787,-35.746 44.787,-35.433L44.787,-25.795Z" style="fill:none;stroke:black;stroke-width:0.35px;"/>
            </g>
            <g id="s2-22" transform="matrix(-1,-1.22465e-16,1.22465e-16,-1,113.386,1.10134e-11)">
                <path d="M15.307,-24.094L15.307,7.087C25.434,7.087 34.792,1.144 39.856,-8.504C34.792,-18.151 25.434,-24.094 15.307,-24.094" style="fill:none;stroke:black;stroke-width:0.35px;"/>
            </g>
            <g id="s2-6" transform="matrix(-1,-1.22465e-16,1.22465e-16,-1,113.386,1.10134e-11)">
                <path d="M15.307,38.835L15.307,24.945C15.307,24.632 15.561,24.378 15.874,24.378L43.087,24.378C43.237,24.378 43.381,24.438 43.487,24.544C43.594,24.65 43.654,24.795 43.654,24.945L43.654,38.835C43.654,39.148 43.4,39.402 43.087,39.402L15.874,39.402C15.561,39.402 15.307,39.148 15.307,38.835Z" style="fill:none;stroke:black;stroke-width:0.35px;"/>
            </g>
            <g id="s2-33" transform="matrix(-1,-1.22465e-16,1.22465e-16,-1,113.386,1.10134e-11)">
                <path d="M-43.087,-36L-15.874,-36C-15.724,-36 -15.579,-35.94 -15.473,-35.834C-15.367,-35.728 -15.307,-35.583 -15.307,-35.433L-15.307,-25.795C-15.307,-25.482 -15.561,-25.228 -15.874,-25.228L-43.087,-25.228C-43.4,-25.228 -43.654,-25.482 -43.654,-25.795L-43.654,-35.433C-43.654,-35.746 -43.4,-36 -43.087,-36Z" style="fill:none;stroke:black;stroke-width:0.35px;"/>
            </g>
            <g id="s2-35" transform="matrix(-1,-1.22465e-16,1.22465e-16,-1,113.386,1.10134e-11)">
                <path d="M45.354,-47.906C45.041,-47.906 44.787,-47.652 44.787,-47.339L44.787,-37.701C44.787,-37.388 45.041,-37.134 45.354,-37.134L55.559,-37.134C55.872,-37.134 56.126,-37.388 56.126,-37.701L56.126,-47.339C56.126,-47.652 55.872,-47.906 55.559,-47.906L45.354,-47.906Z" style="fill:none;stroke:black;stroke-width:0.35px;"/>
            </g>
            <g id="s2-17" transform="matrix(-1,-1.22465e-16,1.22465e-16,-1,113.386,1.10134e-11)">
                <path d="M40.473,-7.264C36.55,-0.216 30.315,4.919 23.048,7.087L43.082,7.087C43.234,7.087 43.38,7.026 43.486,6.917C43.593,6.809 43.651,6.662 43.649,6.51C43.568,1.711 42.481,-3.002 40.473,-7.264" style="fill:none;stroke:black;stroke-width:0.35px;"/>
            </g>
            <g id="s2-21" transform="matrix(-1,-1.22465e-16,1.22465e-16,-1,113.386,1.10134e-11)">
                <path d="M41.129,-8.504C43.446,-3.894 44.7,1.266 44.783,6.529C44.788,6.838 45.04,7.087 45.35,7.087L55.559,7.087C55.872,7.087 56.126,6.833 56.126,6.52L56.126,-23.528C56.126,-23.841 55.872,-24.094 55.559,-24.094L45.35,-24.094C45.04,-24.094 44.788,-23.846 44.783,-23.536C44.7,-18.274 43.446,-13.114 41.129,-8.504" style="fill:none;stroke:black;stroke-width:0.35px;"/>
            </g>
            <g id="s2-25" transform="matrix(-1,-1.22465e-16,1.22465e-16,-1,113.386,1.10134e-11)">
                <path d="M40.473,-9.744C36.55,-16.792 30.315,-21.927 23.048,-24.094L43.082,-24.094C43.234,-24.094 43.38,-24.033 43.486,-23.925C43.593,-23.817 43.651,-23.67 43.649,-23.518C43.568,-18.719 42.481,-14.005 40.473,-9.744" style="fill:none;stroke:black;stroke-width:0.35px;"/>
            </g>
            <g id="s2-36" transform="matrix(-1,-1.22465e-16,1.22465e-16,-1,113.386,1.10134e-11)">
                <path d="M15.874,-47.906L43.087,-47.906C43.4,-47.906 43.654,-47.652 43.654,-47.339L43.654,-37.701C43.654,-37.55 43.594,-37.406 43.487,-37.3C43.381,-37.194 43.237,-37.134 43.087,-37.134L15.874,-37.134C15.561,-37.134 15.307,-37.388 15.307,-37.701L15.307,-47.339C15.307,-47.652 15.561,-47.906 15.874,-47.906Z" style="fill:none;stroke:black;stroke-width:0.35px;"/>
            </g>
            <g id="s2-37" transform="matrix(-1,-1.22465e-16,1.22465e-16,-1,113.386,1.10134e-11)">
                <path d="M0.567,-37.701L0.567,-47.339C0.567,-47.652 0.821,-47.906 1.134,-47.906L13.606,-47.906C13.919,-47.906 14.173,-47.652 14.173,-47.339L14.173,-37.701C14.173,-37.55 14.113,-37.406 14.007,-37.3C13.901,-37.194 13.757,-37.134 13.606,-37.134L1.134,-37.134C0.821,-37.134 0.567,-37.388 0.567,-37.701Z" style="fill:none;stroke:black;stroke-width:0.35px;"/>
            </g>
            <g id="s2-4" transform="matrix(-1,-1.22465e-16,1.22465e-16,-1,113.386,1.10134e-11)">
                <path d="M-15.892,71.705C-15.738,71.71 -15.59,71.652 -15.479,71.545C-15.369,71.439 -15.307,71.292 -15.307,71.138L-15.307,41.102C-15.307,40.789 -15.561,40.535 -15.874,40.535L-43.076,40.535C-43.229,40.535 -43.375,40.597 -43.482,40.707C-43.589,40.817 -43.647,40.965 -43.643,41.118C-43.187,57.814 -31.013,71.232 -15.892,71.705" style="fill:none;stroke:black;stroke-width:0.35px;"/>
            </g>
            <g id="s2-1" transform="matrix(-1,-1.22465e-16,1.22465e-16,-1,113.386,1.10134e-11)">
                <path d="M15.892,71.705C31.013,71.232 43.187,57.814 43.643,41.118C43.647,40.965 43.589,40.817 43.482,40.707C43.375,40.597 43.229,40.535 43.076,40.535L15.874,40.535C15.561,40.535 15.307,40.789 15.307,41.102L15.307,71.138C15.307,71.292 15.369,71.439 15.479,71.545C15.59,71.652 15.738,71.71 15.892,71.705" style="fill:none;stroke:black;stroke-width:0.35px;"/>
            </g>
            <g id="s2-13" transform="matrix(-1,-1.22465e-16,1.22465e-16,-1,113.386,1.10134e-11)">
                <path d="M13.606,23.244L1.134,23.244C0.983,23.244 0.839,23.184 0.733,23.078C0.627,22.972 0.567,22.828 0.567,22.677L0.567,8.787C0.567,8.474 0.821,8.22 1.134,8.22L13.606,8.22C13.919,8.22 14.173,8.474 14.173,8.787L14.173,22.677C14.173,22.99 13.919,23.244 13.606,23.244Z" style="fill:none;stroke:black;stroke-width:0.35px;"/>
            </g>
            <g id="s2-18" transform="matrix(-1,-1.22465e-16,1.22465e-16,-1,113.386,1.10134e-11)">
                <path d="M13.606,7.087L1.134,7.087C0.983,7.087 0.839,7.027 0.733,6.921C0.627,6.814 0.567,6.67 0.567,6.52L0.567,-7.37C0.567,-7.683 0.821,-7.937 1.134,-7.937L13.606,-7.937C13.919,-7.937 14.173,-7.683 14.173,-7.37L14.173,6.52C14.173,6.833 13.919,7.087 13.606,7.087Z" style="fill:none;stroke:black;stroke-width:0.35px;"/>
            </g>
            <g id="s2-31" transform="matrix(-1,-1.22465e-16,1.22465e-16,-1,113.386,1.10134e-11)">
                <path d="M13.606,-25.228L1.134,-25.228C0.983,-25.228 0.839,-25.288 0.733,-25.394C0.627,-25.501 0.567,-25.645 0.567,-25.795L0.567,-35.433C0.567,-35.583 0.627,-35.728 0.733,-35.834C0.839,-35.94 0.983,-36 1.134,-36L13.606,-36C13.919,-36 14.173,-35.746 14.173,-35.433L14.173,-25.795C14.173,-25.482 13.919,-25.228 13.606,-25.228Z" style="fill:none;stroke:black;stroke-width:0.35px;"/>
            </g>
            <g id="s2-26" transform="matrix(-1,-1.22465e-16,1.22465e-16,-1,113.386,1.10134e-11)">
                <path d="M13.606,-9.071L1.134,-9.071C0.983,-9.071 0.839,-9.131 0.733,-9.237C0.627,-9.343 0.567,-9.487 0.567,-9.638L0.567,-23.528C0.567,-23.841 0.821,-24.094 1.134,-24.094L13.606,-24.094C13.919,-24.094 14.173,-23.841 14.173,-23.528L14.173,-9.638C14.173,-9.325 13.919,-9.071 13.606,-9.071Z" style="fill:none;stroke:black;stroke-width:0.35px;"/>
            </g>
            <g id="s2-12" transform="matrix(-1,-1.22465e-16,1.22465e-16,-1,113.386,1.10134e-11)">
                <path d="M43.087,23.244L15.874,23.244C15.724,23.244 15.579,23.184 15.473,23.078C15.367,22.972 15.307,22.828 15.307,22.677L15.307,8.787C15.307,8.474 15.561,8.22 15.874,8.22L43.087,8.22C43.4,8.22 43.654,8.474 43.654,8.787L43.654,22.677C43.654,22.99 43.4,23.244 43.087,23.244Z" style="fill:none;stroke:black;stroke-width:0.35px;"/>
            </g>
            <g id="s2-30" transform="matrix(-1,-1.22465e-16,1.22465e-16,-1,113.386,1.10134e-11)">
                <path d="M15.307,-25.795L15.307,-35.433C15.307,-35.583 15.367,-35.728 15.473,-35.834C15.579,-35.94 15.724,-36 15.874,-36L43.087,-36C43.4,-36 43.654,-35.746 43.654,-35.433L43.654,-25.795C43.654,-25.482 43.4,-25.228 43.087,-25.228L15.874,-25.228C15.561,-25.228 15.307,-25.482 15.307,-25.795Z" style="fill:none;stroke:black;stroke-width:0.35px;"/>
            </g>
            <g id="s2-28" transform="matrix(-1,-1.22465e-16,1.22465e-16,-1,113.386,1.10134e-11)">
                <path d="M-40.473,-9.744C-36.55,-16.792 -30.315,-21.927 -23.048,-24.094L-43.082,-24.094C-43.234,-24.094 -43.38,-24.033 -43.486,-23.925C-43.593,-23.817 -43.651,-23.67 -43.649,-23.518C-43.568,-18.719 -42.481,-14.005 -40.473,-9.744" style="fill:none;stroke:black;stroke-width:0.35px;"/>
            </g>
            <g id="s2-34" transform="matrix(-1,-1.22465e-16,1.22465e-16,-1,113.386,1.10134e-11)">
                <path d="M-55.559,-36C-55.709,-36 -55.854,-35.94 -55.96,-35.834C-56.066,-35.728 -56.126,-35.583 -56.126,-35.433L-56.126,-25.795C-56.126,-25.482 -55.872,-25.228 -55.559,-25.228L-45.354,-25.228C-45.041,-25.228 -44.787,-25.482 -44.787,-25.795L-44.787,-35.433C-44.787,-35.583 -44.847,-35.728 -44.953,-35.834C-45.06,-35.94 -45.204,-36 -45.354,-36L-55.559,-36Z" style="fill:none;stroke:black;stroke-width:0.35px;"/>
            </g>
            <g id="s2-20" transform="matrix(-1,-1.22465e-16,1.22465e-16,-1,113.386,1.10134e-11)">
                <path d="M-23.048,7.087L-43.082,7.087C-43.234,7.087 -43.38,7.026 -43.486,6.917C-43.593,6.809 -43.651,6.662 -43.649,6.51C-43.568,1.711 -42.481,-3.002 -40.473,-7.264C-36.55,-0.216 -30.315,4.919 -23.048,7.087" style="fill:none;stroke:black;stroke-width:0.35px;"/>
            </g>
            <g id="s2-24" transform="matrix(-1,-1.22465e-16,1.22465e-16,-1,113.386,1.10134e-11)">
                <path d="M-41.129,-8.504C-43.446,-13.114 -44.7,-18.274 -44.783,-23.536C-44.788,-23.846 -45.04,-24.094 -45.35,-24.094L-55.559,-24.094C-55.872,-24.094 -56.126,-23.841 -56.126,-23.528L-56.126,6.52C-56.126,6.833 -55.872,7.087 -55.559,7.087L-45.35,7.087C-45.04,7.087 -44.788,6.838 -44.783,6.529C-44.7,1.266 -43.446,-3.894 -41.129,-8.504" style="fill:none;stroke:black;stroke-width:0.35px;"/>
            </g>
            <g id="s2-16" transform="matrix(-1,-1.22465e-16,1.22465e-16,-1,113.386,1.10134e-11)">
                <path d="M-55.559,8.22C-55.709,8.22 -55.854,8.28 -55.96,8.387C-56.066,8.493 -56.126,8.637 -56.126,8.787L-56.126,22.677C-56.126,22.99 -55.872,23.244 -55.559,23.244L-45.354,23.244C-45.041,23.244 -44.787,22.99 -44.787,22.677L-44.787,8.787C-44.787,8.637 -44.847,8.493 -44.953,8.387C-45.06,8.28 -45.204,8.22 -45.354,8.22L-55.559,8.22Z" style="fill:none;stroke:black;stroke-width:0.35px;"/>
            </g>
            <g id="s2-43" transform="matrix(-1,-1.22465e-16,1.22465e-16,-1,113.386,1.10134e-11)">
                <path d="M-1.134,-49.039C-0.821,-49.039 -0.567,-49.293 -0.567,-49.606L-0.567,-71.15C-0.567,-71.463 -0.821,-71.717 -1.134,-71.717L-13.606,-71.717C-13.919,-71.717 -14.173,-71.463 -14.173,-71.15L-14.173,-49.606C-14.173,-49.293 -13.919,-49.039 -13.606,-49.039L-1.134,-49.039Z" style="fill:none;stroke:black;stroke-width:0.35px;"/>
            </g>
            <g id="s2-40" transform="matrix(-1,-1.22465e-16,1.22465e-16,-1,113.386,1.10134e-11)">
                <path d="M-56.126,-37.701C-56.126,-37.55 -56.066,-37.406 -55.96,-37.3C-55.854,-37.194 -55.709,-37.134 -55.559,-37.134L-45.354,-37.134C-45.204,-37.134 -45.06,-37.194 -44.953,-37.3C-44.847,-37.406 -44.787,-37.55 -44.787,-37.701L-44.787,-47.339C-44.787,-47.489 -44.847,-47.633 -44.953,-47.739C-45.06,-47.846 -45.204,-47.906 -45.354,-47.906L-55.559,-47.906C-55.709,-47.906 -55.854,-47.846 -55.96,-47.739C-56.066,-47.633 -56.126,-47.489 -56.126,-47.339L-56.126,-37.701Z" style="fill:none;stroke:black;stroke-width:0.35px;"/>
            </g>
            <g id="s2-42" transform="matrix(-1,-1.22465e-16,1.22465e-16,-1,113.386,1.10134e-11)">
                <path d="M0.567,-49.606C0.567,-49.456 0.627,-49.312 0.733,-49.205C0.839,-49.099 0.983,-49.039 1.134,-49.039L13.606,-49.039C13.919,-49.039 14.173,-49.293 14.173,-49.606L14.173,-71.15C14.173,-71.463 13.919,-71.717 13.606,-71.717L1.134,-71.717C0.983,-71.717 0.839,-71.657 0.733,-71.55C0.627,-71.444 0.567,-71.3 0.567,-71.15L0.567,-49.606Z" style="fill:none;stroke:black;stroke-width:0.35px;"/>
            </g>
            <g id="s2-10" transform="matrix(-1,-1.22465e-16,1.22465e-16,-1,113.386,1.10134e-11)">
                <path d="M-55.559,24.378C-55.872,24.378 -56.126,24.632 -56.126,24.945L-56.126,38.835C-56.126,38.985 -56.066,39.129 -55.96,39.236C-55.854,39.342 -55.709,39.402 -55.559,39.402L-45.354,39.402C-45.204,39.402 -45.06,39.342 -44.953,39.236C-44.847,39.129 -44.787,38.985 -44.787,38.835L-44.787,24.945C-44.787,24.632 -45.041,24.378 -45.354,24.378L-55.559,24.378Z" style="fill:none;stroke:black;stroke-width:0.35px;"/>
            </g>
            <g id="s2-3" transform="matrix(-1,-1.22465e-16,1.22465e-16,-1,113.386,1.10134e-11)">
                <path d="M-0.567,41.102L-0.567,71.15C-0.567,71.3 -0.627,71.444 -0.733,71.55C-0.839,71.657 -0.983,71.717 -1.134,71.717L-13.606,71.717C-13.919,71.717 -14.173,71.463 -14.173,71.15L-14.173,41.102C-14.173,40.952 -14.113,40.808 -14.007,40.701C-13.901,40.595 -13.757,40.535 -13.606,40.535L-1.134,40.535C-0.821,40.535 -0.567,40.789 -0.567,41.102Z" style="fill:none;stroke:black;stroke-width:0.35px;"/>
            </g>
            <g id="s2-27" transform="matrix(-1,-1.22465e-16,1.22465e-16,-1,113.386,1.10134e-11)">
                <path d="M-0.567,-23.528L-0.567,-9.638C-0.567,-9.487 -0.627,-9.343 -0.733,-9.237C-0.839,-9.131 -0.983,-9.071 -1.134,-9.071L-13.606,-9.071C-13.919,-9.071 -14.173,-9.325 -14.173,-9.638L-14.173,-23.528C-14.173,-23.841 -13.919,-24.094 -13.606,-24.094L-1.134,-24.094C-0.821,-24.094 -0.567,-23.841 -0.567,-23.528Z" style="fill:none;stroke:black;stroke-width:0.35px;"/>
            </g>
            <g id="s2-39" transform="matrix(-1,-1.22465e-16,1.22465e-16,-1,113.386,1.10134e-11)">
                <path d="M-43.654,-37.701L-43.654,-47.339C-43.654,-47.489 -43.594,-47.633 -43.487,-47.739C-43.381,-47.846 -43.237,-47.906 -43.087,-47.906L-15.874,-47.906C-15.561,-47.906 -15.307,-47.652 -15.307,-47.339L-15.307,-37.701C-15.307,-37.388 -15.561,-37.134 -15.874,-37.134L-43.087,-37.134C-43.237,-37.134 -43.381,-37.194 -43.487,-37.3C-43.594,-37.406 -43.654,-37.55 -43.654,-37.701Z" style="fill:none;stroke:black;stroke-width:0.35px;"/>
            </g>
            <g id="s2-15" transform="matrix(-1,-1.22465e-16,1.22465e-16,-1,113.386,1.10134e-11)">
                <path d="M-15.307,8.787L-15.307,22.677C-15.307,22.828 -15.367,22.972 -15.473,23.078C-15.579,23.184 -15.724,23.244 -15.874,23.244L-43.087,23.244C-43.4,23.244 -43.654,22.99 -43.654,22.677L-43.654,8.787C-43.654,8.637 -43.594,8.493 -43.487,8.387C-43.381,8.28 -43.237,8.22 -43.087,8.22L-15.874,8.22C-15.561,8.22 -15.307,8.474 -15.307,8.787Z" style="fill:none;stroke:black;stroke-width:0.35px;"/>
            </g>
            <g id="s2-38" transform="matrix(-1,-1.22465e-16,1.22465e-16,-1,113.386,1.10134e-11)">
                <path d="M-13.606,-47.906L-1.134,-47.906C-0.821,-47.906 -0.567,-47.652 -0.567,-47.339L-0.567,-37.701C-0.567,-37.388 -0.821,-37.134 -1.134,-37.134L-13.606,-37.134C-13.757,-37.134 -13.901,-37.194 -14.007,-37.3C-14.113,-37.406 -14.173,-37.55 -14.173,-37.701L-14.173,-47.339C-14.173,-47.489 -14.113,-47.633 -14.007,-47.739C-13.901,-47.846 -13.757,-47.906 -13.606,-47.906Z" style="fill:none;stroke:black;stroke-width:0.35px;"/>
            </g>
            <g id="s2-9" transform="matrix(-1,-1.22465e-16,1.22465e-16,-1,113.386,1.10134e-11)">
                <path d="M-43.087,24.378L-15.874,24.378C-15.561,24.378 -15.307,24.632 -15.307,24.945L-15.307,38.835C-15.307,39.148 -15.561,39.402 -15.874,39.402L-43.087,39.402C-43.237,39.402 -43.381,39.342 -43.487,39.236C-43.594,39.129 -43.654,38.985 -43.654,38.835L-43.654,24.945C-43.654,24.795 -43.594,24.65 -43.487,24.544C-43.381,24.438 -43.237,24.378 -43.087,24.378Z" style="fill:none;stroke:black;stroke-width:0.35px;"/>
            </g>
            <g id="s2-8" transform="matrix(-1,-1.22465e-16,1.22465e-16,-1,113.386,1.10134e-11)">
                <path d="M-13.606,24.378L-1.134,24.378C-0.821,24.378 -0.567,24.632 -0.567,24.945L-0.567,38.835C-0.567,38.985 -0.627,39.129 -0.733,39.236C-0.839,39.342 -0.983,39.402 -1.134,39.402L-13.606,39.402C-13.757,39.402 -13.901,39.342 -14.007,39.236C-14.113,39.129 -14.173,38.985 -14.173,38.835L-14.173,24.945C-14.173,24.795 -14.113,24.65 -14.007,24.544C-13.901,24.438 -13.757,24.378 -13.606,24.378Z" style="fill:none;stroke:black;stroke-width:0.35px;"/>
            </g>
            <g id="s2-7" transform="matrix(-1,-1.22465e-16,1.22465e-16,-1,113.386,1.10134e-11)">
                <path d="M0.567,38.835L0.567,24.945C0.567,24.632 0.821,24.378 1.134,24.378L13.606,24.378C13.757,24.378 13.901,24.438 14.007,24.544C14.113,24.65 14.173,24.795 14.173,24.945L14.173,38.835C14.173,39.148 13.919,39.402 13.606,39.402L1.134,39.402C0.983,39.402 0.839,39.342 0.733,39.236C0.627,39.129 0.567,38.985 0.567,38.835Z" style="fill:none;stroke:black;stroke-width:0.35px;"/>
            </g>
            <g id="s2-2" transform="matrix(-1,-1.22465e-16,1.22465e-16,-1,113.386,1.10134e-11)">
                <path d="M13.606,71.717L1.134,71.717C0.983,71.717 0.839,71.657 0.733,71.55C0.627,71.444 0.567,71.3 0.567,71.15L0.567,41.102C0.567,40.789 0.821,40.535 1.134,40.535L13.606,40.535C13.757,40.535 13.901,40.595 14.007,40.701C14.113,40.808 14.173,40.952 14.173,41.102L14.173,71.15C14.173,71.463 13.919,71.717 13.606,71.717Z" style="fill:none;stroke:black;stroke-width:0.35px;"/>
            </g>
            <g id="s2-14" transform="matrix(-1,-1.22465e-16,1.22465e-16,-1,113.386,1.10134e-11)">
                <path d="M-0.567,8.787L-0.567,22.677C-0.567,22.828 -0.627,22.972 -0.733,23.078C-0.839,23.184 -0.983,23.244 -1.134,23.244L-13.606,23.244C-13.919,23.244 -14.173,22.99 -14.173,22.677L-14.173,8.787C-14.173,8.474 -13.919,8.22 -13.606,8.22L-1.134,8.22C-0.821,8.22 -0.567,8.474 -0.567,8.787Z" style="fill:none;stroke:black;stroke-width:0.35px;"/>
            </g>
            <g id="s2-32" transform="matrix(-1,-1.22465e-16,1.22465e-16,-1,113.386,1.10134e-11)">
                <path d="M-0.567,-35.433L-0.567,-25.795C-0.567,-25.645 -0.627,-25.501 -0.733,-25.394C-0.839,-25.288 -0.983,-25.228 -1.134,-25.228L-13.606,-25.228C-13.919,-25.228 -14.173,-25.482 -14.173,-25.795L-14.173,-35.433C-14.173,-35.746 -13.919,-36 -13.606,-36L-1.134,-36C-0.983,-36 -0.839,-35.94 -0.733,-35.834C-0.627,-35.728 -0.567,-35.583 -0.567,-35.433Z" style="fill:none;stroke:black;stroke-width:0.35px;"/>
            </g>
            <g id="s2-19" transform="matrix(-1,-1.22465e-16,1.22465e-16,-1,113.386,1.10134e-11)">
                <path d="M-0.567,-7.37L-0.567,6.52C-0.567,6.67 -0.627,6.814 -0.733,6.921C-0.839,7.027 -0.983,7.087 -1.134,7.087L-13.606,7.087C-13.919,7.087 -14.173,6.833 -14.173,6.52L-14.173,-7.37C-14.173,-7.683 -13.919,-7.937 -13.606,-7.937L-1.134,-7.937C-0.821,-7.937 -0.567,-7.683 -0.567,-7.37Z" style="fill:none;stroke:black;stroke-width:0.35px;"/>
            </g>
            <g id="s1-19" transform="matrix(-1,-1.22465e-16,1.22465e-16,-1,113.386,1.10134e-11)">
                <path d="M112.819,-7.37L112.819,6.52C112.819,6.67 112.759,6.814 112.653,6.921C112.547,7.027 112.402,7.087 112.252,7.087L99.78,7.087C99.466,7.087 99.213,6.833 99.213,6.52L99.213,-7.37C99.213,-7.683 99.466,-7.937 99.78,-7.937L112.252,-7.937C112.565,-7.937 112.819,-7.683 112.819,-7.37Z" style="fill:none;stroke:black;stroke-width:0.35px;"/>
            </g>
            <g id="s1-32" transform="matrix(-1,-1.22465e-16,1.22465e-16,-1,113.386,1.10134e-11)">
                <path d="M112.819,-35.433L112.819,-25.795C112.819,-25.645 112.759,-25.501 112.653,-25.394C112.547,-25.288 112.402,-25.228 112.252,-25.228L99.78,-25.228C99.466,-25.228 99.213,-25.482 99.213,-25.795L99.213,-35.433C99.213,-35.746 99.466,-36 99.78,-36L112.252,-36C112.402,-36 112.547,-35.94 112.653,-35.834C112.759,-35.728 112.819,-35.583 112.819,-35.433Z" style="fill:none;stroke:black;stroke-width:0.35px;"/>
            </g>
            <g id="s1-14" transform="matrix(-1,-1.22465e-16,1.22465e-16,-1,113.386,1.10134e-11)">
                <path d="M112.819,8.787L112.819,22.677C112.819,22.828 112.759,22.972 112.653,23.078C112.547,23.184 112.402,23.244 112.252,23.244L99.78,23.244C99.466,23.244 99.213,22.99 99.213,22.677L99.213,8.787C99.213,8.474 99.466,8.22 99.78,8.22L112.252,8.22C112.565,8.22 112.819,8.474 112.819,8.787Z" style="fill:none;stroke:black;stroke-width:0.35px;"/>
            </g>
            <g id="s1-2" transform="matrix(-1,-1.22465e-16,1.22465e-16,-1,113.386,1.10134e-11)">
                <path d="M126.992,71.717L114.52,71.717C114.369,71.717 114.225,71.657 114.119,71.55C114.012,71.444 113.953,71.3 113.953,71.15L113.953,41.102C113.953,40.789 114.207,40.535 114.52,40.535L126.992,40.535C127.305,40.535 127.559,40.789 127.559,41.102L127.559,71.15C127.559,71.463 127.305,71.717 126.992,71.717Z" style="fill:none;stroke:black;stroke-width:0.35px;"/>
            </g>
            <g id="s1-7" transform="matrix(-1,-1.22465e-16,1.22465e-16,-1,113.386,1.10134e-11)">
                <path d="M113.953,38.835L113.953,24.945C113.953,24.632 114.207,24.378 114.52,24.378L126.992,24.378C127.142,24.378 127.287,24.438 127.393,24.544C127.499,24.65 127.559,24.795 127.559,24.945L127.559,38.835C127.559,39.148 127.305,39.402 126.992,39.402L114.52,39.402C114.369,39.402 114.225,39.342 114.119,39.236C114.012,39.129 113.953,38.985 113.953,38.835Z" style="fill:none;stroke:black;stroke-width:0.35px;"/>
            </g>
            <g id="s1-8" transform="matrix(-1,-1.22465e-16,1.22465e-16,-1,113.386,1.10134e-11)">
                <path d="M99.78,24.378L112.252,24.378C112.565,24.378 112.819,24.632 112.819,24.945L112.819,38.835C112.819,38.985 112.759,39.129 112.653,39.236C112.547,39.342 112.402,39.402 112.252,39.402L99.78,39.402C99.466,39.402 99.213,39.148 99.213,38.835L99.213,24.945C99.213,24.795 99.272,24.65 99.379,24.544C99.485,24.438 99.629,24.378 99.78,24.378Z" style="fill:none;stroke:black;stroke-width:0.35px;"/>
            </g>
            <g id="s1-9" transform="matrix(-1,-1.22465e-16,1.22465e-16,-1,113.386,1.10134e-11)">
                <path d="M70.299,24.378L97.512,24.378C97.825,24.378 98.079,24.632 98.079,24.945L98.079,38.835C98.079,39.148 97.825,39.402 97.512,39.402L70.299,39.402C70.149,39.402 70.005,39.342 69.898,39.236C69.792,39.129 69.732,38.985 69.732,38.835L69.732,24.945C69.732,24.795 69.792,24.65 69.898,24.544C70.005,24.438 70.149,24.378 70.299,24.378Z" style="fill:none;stroke:black;stroke-width:0.35px;"/>
            </g>
            <g id="s1-38" transform="matrix(-1,-1.22465e-16,1.22465e-16,-1,113.386,1.10134e-11)">
                <path d="M99.78,-47.906L112.252,-47.906C112.565,-47.906 112.819,-47.652 112.819,-47.339L112.819,-37.701C112.819,-37.388 112.565,-37.134 112.252,-37.134L99.78,-37.134C99.629,-37.134 99.485,-37.194 99.379,-37.3C99.272,-37.406 99.213,-37.55 99.213,-37.701L99.213,-47.339C99.213,-47.652 99.466,-47.906 99.78,-47.906Z" style="fill:none;stroke:black;stroke-width:0.35px;"/>
            </g>
            <g id="s1-15" transform="matrix(-1,-1.22465e-16,1.22465e-16,-1,113.386,1.10134e-11)">
                <path d="M98.079,8.787L98.079,22.677C98.079,22.828 98.019,22.972 97.913,23.078C97.806,23.184 97.662,23.244 97.512,23.244L70.299,23.244C69.986,23.244 69.732,22.99 69.732,22.677L69.732,8.787C69.732,8.637 69.792,8.493 69.898,8.387C70.005,8.28 70.149,8.22 70.299,8.22L97.512,8.22C97.825,8.22 98.079,8.474 98.079,8.787Z" style="fill:none;stroke:black;stroke-width:0.35px;"/>
            </g>
            <g id="s1-39" transform="matrix(-1,-1.22465e-16,1.22465e-16,-1,113.386,1.10134e-11)">
                <path d="M69.732,-37.701L69.732,-47.339C69.732,-47.489 69.792,-47.633 69.898,-47.739C70.005,-47.846 70.149,-47.906 70.299,-47.906L97.512,-47.906C97.825,-47.906 98.079,-47.652 98.079,-47.339L98.079,-37.701C98.079,-37.388 97.825,-37.134 97.512,-37.134L70.299,-37.134C70.149,-37.134 70.005,-37.194 69.898,-37.3C69.792,-37.406 69.732,-37.55 69.732,-37.701Z" style="fill:none;stroke:black;stroke-width:0.35px;"/>
            </g>
            <g id="s1-27" transform="matrix(-1,-1.22465e-16,1.22465e-16,-1,113.386,1.10134e-11)">
                <path d="M112.819,-23.528L112.819,-9.638C112.819,-9.487 112.759,-9.343 112.653,-9.237C112.547,-9.131 112.402,-9.071 112.252,-9.071L99.78,-9.071C99.466,-9.071 99.213,-9.325 99.213,-9.638L99.213,-23.528C99.213,-23.841 99.466,-24.094 99.78,-24.094L112.252,-24.094C112.565,-24.094 112.819,-23.841 112.819,-23.528Z" style="fill:none;stroke:black;stroke-width:0.35px;"/>
            </g>
            <g id="s1-3" transform="matrix(-1,-1.22465e-16,1.22465e-16,-1,113.386,1.10134e-11)">
                <path d="M112.819,41.102L112.819,71.15C112.819,71.3 112.759,71.444 112.653,71.55C112.547,71.657 112.402,71.717 112.252,71.717L99.78,71.717C99.466,71.717 99.213,71.463 99.213,71.15L99.213,41.102C99.213,40.789 99.466,40.535 99.78,40.535L112.252,40.535C112.565,40.535 112.819,40.789 112.819,41.102Z" style="fill:none;stroke:black;stroke-width:0.35px;"/>
            </g>
            <g id="s1-10" transform="matrix(-1,-1.22465e-16,1.22465e-16,-1,113.386,1.10134e-11)">
                <path d="M57.827,24.378C57.514,24.378 57.26,24.632 57.26,24.945L57.26,38.835C57.26,38.985 57.32,39.129 57.426,39.236C57.532,39.342 57.676,39.402 57.827,39.402L68.031,39.402C68.182,39.402 68.326,39.342 68.432,39.236C68.539,39.129 68.598,38.985 68.598,38.835L68.598,24.945C68.598,24.632 68.345,24.378 68.031,24.378L57.827,24.378Z" style="fill:none;stroke:black;stroke-width:0.35px;"/>
            </g>
            <g id="s1-42" transform="matrix(-1,-1.22465e-16,1.22465e-16,-1,113.386,1.10134e-11)">
                <path d="M113.953,-49.606C113.953,-49.456 114.012,-49.312 114.119,-49.205C114.225,-49.099 114.369,-49.039 114.52,-49.039L126.992,-49.039C127.305,-49.039 127.559,-49.293 127.559,-49.606L127.559,-71.15C127.559,-71.463 127.305,-71.717 126.992,-71.717L114.52,-71.717C114.207,-71.717 113.953,-71.463 113.953,-71.15L113.953,-49.606Z" style="fill:none;stroke:black;stroke-width:0.35px;"/>
            </g>
            <g id="s1-40" transform="matrix(-1,-1.22465e-16,1.22465e-16,-1,113.386,1.10134e-11)">
                <path d="M57.26,-37.701C57.26,-37.55 57.32,-37.406 57.426,-37.3C57.532,-37.194 57.676,-37.134 57.827,-37.134L68.031,-37.134C68.182,-37.134 68.326,-37.194 68.432,-37.3C68.539,-37.406 68.598,-37.55 68.598,-37.701L68.598,-47.339C68.598,-47.489 68.539,-47.633 68.432,-47.739C68.326,-47.846 68.182,-47.906 68.031,-47.906L57.827,-47.906C57.676,-47.906 57.532,-47.846 57.426,-47.739C57.32,-47.633 57.26,-47.489 57.26,-47.339L57.26,-37.701Z" style="fill:none;stroke:black;stroke-width:0.35px;"/>
            </g>
            <g id="s1-43" transform="matrix(-1,-1.22465e-16,1.22465e-16,-1,113.386,1.10134e-11)">
                <path d="M112.252,-49.039C112.565,-49.039 112.819,-49.293 112.819,-49.606L112.819,-71.15C112.819,-71.463 112.565,-71.717 112.252,-71.717L99.78,-71.717C99.466,-71.717 99.213,-71.463 99.213,-71.15L99.213,-49.606C99.213,-49.293 99.466,-49.039 99.78,-49.039L112.252,-49.039Z" style="fill:none;stroke:black;stroke-width:0.35px;"/>
            </g>
            <g id="s1-16" transform="matrix(-1,-1.22465e-16,1.22465e-16,-1,113.386,1.10134e-11)">
                <path d="M57.827,8.22C57.676,8.22 57.532,8.28 57.426,8.387C57.32,8.493 57.26,8.637 57.26,8.787L57.26,22.677C57.26,22.99 57.514,23.244 57.827,23.244L68.031,23.244C68.345,23.244 68.598,22.99 68.598,22.677L68.598,8.787C68.598,8.637 68.539,8.493 68.432,8.387C68.326,8.28 68.182,8.22 68.031,8.22L57.827,8.22Z" style="fill:none;stroke:black;stroke-width:0.35px;"/>
            </g>
            <g id="s1-24" transform="matrix(-1,-1.22465e-16,1.22465e-16,-1,113.386,1.10134e-11)">
                <path d="M68.603,6.529C68.686,1.266 69.94,-3.894 72.256,-8.504C69.94,-13.114 68.686,-18.274 68.603,-23.536C68.598,-23.846 68.346,-24.094 68.036,-24.094L57.827,-24.094C57.514,-24.094 57.26,-23.841 57.26,-23.528L57.26,6.52C57.26,6.833 57.514,7.087 57.827,7.087L68.036,7.087C68.346,7.087 68.598,6.838 68.603,6.529" style="fill:none;stroke:black;stroke-width:0.35px;"/>
            </g>
            <g id="s1-20" transform="matrix(-1,-1.22465e-16,1.22465e-16,-1,113.386,1.10134e-11)">
                <path d="M72.913,-7.264C76.836,-0.216 83.07,4.919 90.338,7.087L70.304,7.087C70.152,7.087 70.006,7.026 69.9,6.917C69.793,6.809 69.735,6.662 69.737,6.51C69.818,1.711 70.905,-3.002 72.913,-7.264" style="fill:none;stroke:black;stroke-width:0.35px;"/>
            </g>
            <g id="s1-34" transform="matrix(-1,-1.22465e-16,1.22465e-16,-1,113.386,1.10134e-11)">
                <path d="M57.827,-36C57.676,-36 57.532,-35.94 57.426,-35.834C57.32,-35.728 57.26,-35.583 57.26,-35.433L57.26,-25.795C57.26,-25.482 57.514,-25.228 57.827,-25.228L68.031,-25.228C68.345,-25.228 68.598,-25.482 68.598,-25.795L68.598,-35.433C68.598,-35.583 68.539,-35.728 68.432,-35.834C68.326,-35.94 68.182,-36 68.031,-36L57.827,-36Z" style="fill:none;stroke:black;stroke-width:0.35px;"/>
            </g>
            <g id="s1-28" transform="matrix(-1,-1.22465e-16,1.22465e-16,-1,113.386,1.10134e-11)">
                <path d="M72.913,-9.744C76.836,-16.792 83.07,-21.927 90.338,-24.094L70.304,-24.094C70.152,-24.094 70.006,-24.033 69.9,-23.925C69.793,-23.817 69.735,-23.67 69.737,-23.518C69.818,-18.719 70.905,-14.005 72.913,-9.744" style="fill:none;stroke:black;stroke-width:0.35px;"/>
            </g>
            <g id="s1-30" transform="matrix(-1,-1.22465e-16,1.22465e-16,-1,113.386,1.10134e-11)">
                <path d="M128.693,-25.795L128.693,-35.433C128.693,-35.583 128.753,-35.728 128.859,-35.834C128.965,-35.94 129.109,-36 129.26,-36L156.472,-36C156.786,-36 157.039,-35.746 157.039,-35.433L157.039,-25.795C157.039,-25.482 156.786,-25.228 156.472,-25.228L129.26,-25.228C128.947,-25.228 128.693,-25.482 128.693,-25.795Z" style="fill:none;stroke:black;stroke-width:0.35px;"/>
            </g>
            <g id="s1-12" transform="matrix(-1,-1.22465e-16,1.22465e-16,-1,113.386,1.10134e-11)">
                <path d="M156.472,23.244L129.26,23.244C129.109,23.244 128.965,23.184 128.859,23.078C128.753,22.972 128.693,22.828 128.693,22.677L128.693,8.787C128.693,8.474 128.947,8.22 129.26,8.22L156.472,8.22C156.786,8.22 157.039,8.474 157.039,8.787L157.039,22.677C157.039,22.99 156.786,23.244 156.472,23.244Z" style="fill:none;stroke:black;stroke-width:0.35px;"/>
            </g>
            <g id="s1-26" transform="matrix(-1,-1.22465e-16,1.22465e-16,-1,113.386,1.10134e-11)">
                <path d="M126.992,-9.071L114.52,-9.071C114.369,-9.071 114.225,-9.131 114.119,-9.237C114.012,-9.343 113.953,-9.487 113.953,-9.638L113.953,-23.528C113.953,-23.841 114.207,-24.094 114.52,-24.094L126.992,-24.094C127.305,-24.094 127.559,-23.841 127.559,-23.528L127.559,-9.638C127.559,-9.325 127.305,-9.071 126.992,-9.071Z" style="fill:none;stroke:black;stroke-width:0.35px;"/>
            </g>
            <g id="s1-31" transform="matrix(-1,-1.22465e-16,1.22465e-16,-1,113.386,1.10134e-11)">
                <path d="M126.992,-25.228L114.52,-25.228C114.369,-25.228 114.225,-25.288 114.119,-25.394C114.012,-25.501 113.953,-25.645 113.953,-25.795L113.953,-35.433C113.953,-35.583 114.012,-35.728 114.119,-35.834C114.225,-35.94 114.369,-36 114.52,-36L126.992,-36C127.305,-36 127.559,-35.746 127.559,-35.433L127.559,-25.795C127.559,-25.482 127.305,-25.228 126.992,-25.228Z" style="fill:none;stroke:black;stroke-width:0.35px;"/>
            </g>
            <g id="s1-18" transform="matrix(-1,-1.22465e-16,1.22465e-16,-1,113.386,1.10134e-11)">
                <path d="M126.992,7.087L114.52,7.087C114.369,7.087 114.225,7.027 114.119,6.921C114.012,6.814 113.953,6.67 113.953,6.52L113.953,-7.37C113.953,-7.683 114.207,-7.937 114.52,-7.937L126.992,-7.937C127.305,-7.937 127.559,-7.683 127.559,-7.37L127.559,6.52C127.559,6.833 127.305,7.087 126.992,7.087Z" style="fill:none;stroke:black;stroke-width:0.35px;"/>
            </g>
            <g id="s1-13" transform="matrix(-1,-1.22465e-16,1.22465e-16,-1,113.386,1.10134e-11)">
                <path d="M126.992,23.244L114.52,23.244C114.369,23.244 114.225,23.184 114.119,23.078C114.012,22.972 113.953,22.828 113.953,22.677L113.953,8.787C113.953,8.474 114.207,8.22 114.52,8.22L126.992,8.22C127.305,8.22 127.559,8.474 127.559,8.787L127.559,22.677C127.559,22.99 127.305,23.244 126.992,23.244Z" style="fill:none;stroke:black;stroke-width:0.35px;"/>
            </g>
            <g id="s1-1" transform="matrix(-1,-1.22465e-16,1.22465e-16,-1,113.386,1.10134e-11)">
                <path d="M156.462,40.535L129.26,40.535C128.947,40.535 128.693,40.789 128.693,41.102L128.693,71.138C128.693,71.292 128.755,71.439 128.865,71.545C128.975,71.652 129.124,71.71 129.278,71.705C144.399,71.232 156.573,57.814 157.028,41.118C157.033,40.965 156.975,40.817 156.868,40.707C156.761,40.597 156.615,40.535 156.462,40.535" style="fill:rgb(255,228,6);stroke:black;stroke-width:0.35px;"/>
            </g>
            <g id="s1-4" transform="matrix(-1,-1.22465e-16,1.22465e-16,-1,113.386,1.10134e-11)">
                <path d="M98.079,71.138L98.079,41.102C98.079,40.789 97.825,40.535 97.512,40.535L70.31,40.535C70.157,40.535 70.01,40.597 69.904,40.707C69.797,40.817 69.739,40.965 69.743,41.118C70.199,57.814 82.373,71.232 97.494,71.705C97.647,71.71 97.796,71.652 97.906,71.545C98.017,71.439 98.079,71.292 98.079,71.138" style="fill:none;stroke:black;stroke-width:0.35px;"/>
            </g>
            <g id="s1-37" transform="matrix(-1,-1.22465e-16,1.22465e-16,-1,113.386,1.10134e-11)">
                <path d="M113.953,-37.701L113.953,-47.339C113.953,-47.652 114.207,-47.906 114.52,-47.906L126.992,-47.906C127.305,-47.906 127.559,-47.652 127.559,-47.339L127.559,-37.701C127.559,-37.55 127.499,-37.406 127.393,-37.3C127.287,-37.194 127.142,-37.134 126.992,-37.134L114.52,-37.134C114.207,-37.134 113.953,-37.388 113.953,-37.701Z" style="fill:none;stroke:black;stroke-width:0.35px;"/>
            </g>
            <g id="s1-36" transform="matrix(-1,-1.22465e-16,1.22465e-16,-1,113.386,1.10134e-11)">
                <path d="M129.26,-47.906L156.472,-47.906C156.786,-47.906 157.039,-47.652 157.039,-47.339L157.039,-37.701C157.039,-37.55 156.98,-37.406 156.873,-37.3C156.767,-37.194 156.623,-37.134 156.472,-37.134L129.26,-37.134C128.947,-37.134 128.693,-37.388 128.693,-37.701L128.693,-47.339C128.693,-47.652 128.947,-47.906 129.26,-47.906Z" style="fill:none;stroke:black;stroke-width:0.35px;"/>
            </g>
            <g id="s1-25" transform="matrix(-1,-1.22465e-16,1.22465e-16,-1,113.386,1.10134e-11)">
                <path d="M153.859,-9.744C149.936,-16.792 143.701,-21.927 136.434,-24.094L156.468,-24.094C156.62,-24.094 156.765,-24.033 156.872,-23.925C156.978,-23.817 157.037,-23.67 157.035,-23.518C156.954,-18.719 155.867,-14.005 153.859,-9.744" style="fill:none;stroke:black;stroke-width:0.35px;"/>
            </g>
            <g id="s1-21" transform="matrix(-1,-1.22465e-16,1.22465e-16,-1,113.386,1.10134e-11)">
                <path d="M158.736,7.087L168.945,7.087C169.258,7.087 169.512,6.833 169.512,6.52L169.512,-23.528C169.512,-23.841 169.258,-24.094 168.945,-24.094L158.736,-24.094C158.426,-24.094 158.174,-23.846 158.169,-23.536C158.086,-18.274 156.832,-13.114 154.515,-8.504C156.832,-3.894 158.086,1.266 158.169,6.529C158.174,6.838 158.426,7.087 158.736,7.087" style="fill:none;stroke:black;stroke-width:0.35px;"/>
            </g>
            <g id="s1-17" transform="matrix(-1,-1.22465e-16,1.22465e-16,-1,113.386,1.10134e-11)">
                <path d="M136.434,7.087L156.468,7.087C156.62,7.087 156.765,7.026 156.872,6.917C156.978,6.809 157.037,6.662 157.035,6.51C156.954,1.711 155.867,-3.002 153.859,-7.264C149.936,-0.216 143.701,4.919 136.434,7.087" style="fill:none;stroke:black;stroke-width:0.35px;"/>
            </g>
            <g id="s1-35" transform="matrix(-1,-1.22465e-16,1.22465e-16,-1,113.386,1.10134e-11)">
                <path d="M158.74,-47.906C158.427,-47.906 158.173,-47.652 158.173,-47.339L158.173,-37.701C158.173,-37.388 158.427,-37.134 158.74,-37.134L168.945,-37.134C169.258,-37.134 169.512,-37.388 169.512,-37.701L169.512,-47.339C169.512,-47.652 169.258,-47.906 168.945,-47.906L158.74,-47.906Z" style="fill:none;stroke:black;stroke-width:0.35px;"/>
            </g>
            <g id="s1-33" transform="matrix(-1,-1.22465e-16,1.22465e-16,-1,113.386,1.10134e-11)">
                <path d="M70.299,-36L97.512,-36C97.662,-36 97.806,-35.94 97.913,-35.834C98.019,-35.728 98.079,-35.583 98.079,-35.433L98.079,-25.795C98.079,-25.482 97.825,-25.228 97.512,-25.228L70.299,-25.228C69.986,-25.228 69.732,-25.482 69.732,-25.795L69.732,-35.433C69.732,-35.746 69.986,-36 70.299,-36Z" style="fill:none;stroke:black;stroke-width:0.35px;"/>
            </g>
            <g id="s1-6" transform="matrix(-1,-1.22465e-16,1.22465e-16,-1,113.386,1.10134e-11)">
                <path d="M128.693,38.835L128.693,24.945C128.693,24.632 128.947,24.378 129.26,24.378L156.472,24.378C156.623,24.378 156.767,24.438 156.873,24.544C156.98,24.65 157.039,24.795 157.039,24.945L157.039,38.835C157.039,39.148 156.786,39.402 156.472,39.402L129.26,39.402C128.947,39.402 128.693,39.148 128.693,38.835Z" style="fill:none;stroke:black;stroke-width:0.35px;"/>
            </g>
            <g id="s1-22" transform="matrix(-1,-1.22465e-16,1.22465e-16,-1,113.386,1.10134e-11)">
                <path d="M153.242,-8.504C148.178,-18.151 138.82,-24.094 128.693,-24.094L128.693,7.087C138.82,7.087 148.178,1.144 153.242,-8.504" style="fill:none;stroke:black;stroke-width:0.35px;"/>
            </g>
            <g id="s1-29" transform="matrix(-1,-1.22465e-16,1.22465e-16,-1,113.386,1.10134e-11)">
                <path d="M158.173,-25.795C158.173,-25.482 158.427,-25.228 158.74,-25.228L168.945,-25.228C169.258,-25.228 169.512,-25.482 169.512,-25.795L169.512,-35.433C169.512,-35.746 169.258,-36 168.945,-36L158.74,-36C158.427,-36 158.173,-35.746 158.173,-35.433L158.173,-25.795Z" style="fill:none;stroke:black;stroke-width:0.35px;"/>
            </g>
            <g id="s1-11" transform="matrix(-1,-1.22465e-16,1.22465e-16,-1,113.386,1.10134e-11)">
                <path d="M158.173,22.677C158.173,22.99 158.427,23.244 158.74,23.244L168.945,23.244C169.258,23.244 169.512,22.99 169.512,22.677L169.512,8.787C169.512,8.474 169.258,8.22 168.945,8.22L158.74,8.22C158.427,8.22 158.173,8.474 158.173,8.787L158.173,22.677Z" style="fill:none;stroke:black;stroke-width:0.35px;"/>
            </g>
            <g id="s1-23" transform="matrix(-1,-1.22465e-16,1.22465e-16,-1,113.386,1.10134e-11)">
                <path d="M73.53,-8.504C78.594,1.144 87.952,7.087 98.079,7.087L98.079,-24.094C87.952,-24.094 78.594,-18.151 73.53,-8.504" style="fill:none;stroke:black;stroke-width:0.35px;"/>
            </g>
            <g id="s1-5" transform="matrix(-1,-1.22465e-16,1.22465e-16,-1,113.386,1.10134e-11)">
                <path d="M158.74,24.378C158.427,24.378 158.173,24.632 158.173,24.945L158.173,38.835C158.173,39.148 158.427,39.402 158.74,39.402L168.945,39.402C169.258,39.402 169.512,39.148 169.512,38.835L169.512,24.945C169.512,24.632 169.258,24.378 168.945,24.378L158.74,24.378Z" style="fill:none;stroke:black;stroke-width:0.35px;"/>
            </g>
            <g id="s1-41" transform="matrix(-1,-1.22465e-16,1.22465e-16,-1,113.386,1.10134e-11)">
                <path d="M156.993,-49.657C155.89,-61.889 143.916,-71.414 129.271,-71.71C129.119,-71.713 128.972,-71.654 128.863,-71.548C128.754,-71.441 128.693,-71.295 128.693,-71.143L128.693,-49.606C128.693,-49.293 128.947,-49.039 129.26,-49.039L156.429,-49.039C156.588,-49.039 156.74,-49.106 156.847,-49.224C156.954,-49.341 157.008,-49.499 156.993,-49.657" style="fill:none;stroke:black;stroke-width:0.35px;"/>
            </g>
            <g id="s1-44" transform="matrix(-1,-1.22465e-16,1.22465e-16,-1,113.386,1.10134e-11)">
                <path d="M98.079,-71.143C98.079,-71.295 98.017,-71.441 97.909,-71.548C97.8,-71.654 97.653,-71.713 97.5,-71.71C82.856,-71.414 70.882,-61.889 69.778,-49.657C69.764,-49.499 69.817,-49.341 69.925,-49.224C70.032,-49.106 70.184,-49.039 70.343,-49.039L97.512,-49.039C97.825,-49.039 98.079,-49.293 98.079,-49.606L98.079,-71.143" style="fill:none;stroke:black;stroke-width:0.35px;"/>
            </g>
            <g id="s2-41" transform="matrix(-1,-1.22465e-16,1.22465e-16,-1,113.386,1.10134e-11)">
                <path d="M43.607,-49.657C42.504,-61.889 30.53,-71.414 15.885,-71.71C15.733,-71.713 15.586,-71.654 15.477,-71.548C15.368,-71.441 15.307,-71.295 15.307,-71.143L15.307,-49.606C15.307,-49.293 15.561,-49.039 15.874,-49.039L43.043,-49.039C43.202,-49.039 43.354,-49.106 43.461,-49.224C43.569,-49.341 43.622,-49.499 43.607,-49.657" style="fill:none;stroke:black;stroke-width:0.35px;"/>
            </g>
            <g id="s2-44" transform="matrix(-1,-1.22465e-16,1.22465e-16,-1,113.386,1.10134e-11)">
                <path d="M-15.307,-71.143C-15.307,-71.295 -15.368,-71.441 -15.477,-71.548C-15.586,-71.654 -15.733,-71.713 -15.885,-71.71C-30.53,-71.414 -42.504,-61.889 -43.607,-49.657C-43.622,-49.499 -43.569,-49.341 -43.461,-49.224C-43.354,-49.106 -43.202,-49.039 -43.043,-49.039L-15.874,-49.039C-15.561,-49.039 -15.307,-49.293 -15.307,-49.606L-15.307,-71.143" style="fill:none;stroke:black;stroke-width:0.35px;"/>
            </g>
        </g>
    </g>
</svg>
